<svg xmlns="http://www.w3.org/2000/svg" width="264" height="60" xml:space="preserve"><g fill="#FFF"><path d="M152.599 41.246V54.59h-5.552V20.207h11.688c3.961 0 6.94.942 8.937 2.825 1.997 1.883 2.995 4.464 2.995 7.744 0 3.247-1.022 5.803-3.068 7.67-2.045 1.867-5 2.8-8.863 2.8h-6.137zm12.419-10.471c0-1.948-.544-3.434-1.631-4.457-1.089-1.022-2.833-1.534-5.235-1.534h-5.553v11.932h5.553c4.577 0 6.866-1.979 6.866-5.941zM194.824 29.071c2.077 1.104 3.701 2.695 4.87 4.772 1.169 2.078 1.753 4.514 1.753 7.306 0 2.824-.584 5.276-1.753 7.354-1.169 2.078-2.793 3.67-4.87 4.772-2.078 1.104-4.416 1.656-7.014 1.656s-4.927-.552-6.988-1.656c-2.063-1.103-3.686-2.702-4.87-4.797-1.186-2.094-1.777-4.537-1.777-7.329s.592-5.228 1.777-7.306c1.185-2.077 2.808-3.668 4.87-4.772 2.062-1.104 4.391-1.656 6.988-1.656s4.936.552 7.014 1.656zm-10.958 4.139c-1.201.649-2.167 1.648-2.897 2.995-.73 1.348-1.096 2.995-1.096 4.943 0 1.98.365 3.637 1.096 4.968s1.696 2.321 2.897 2.971 2.516.974 3.944.974 2.744-.324 3.945-.974 2.167-1.64 2.897-2.971 1.096-2.987 1.096-4.968c0-1.948-.365-3.596-1.096-4.943-.73-1.347-1.696-2.346-2.897-2.995s-2.517-.975-3.945-.975-2.743.326-3.944.975zM223.193 29.826c1.898 1.606 3.06 3.758 3.481 6.453h-5.26c-.228-1.461-.852-2.638-1.875-3.531-1.022-.893-2.379-1.339-4.066-1.339-1.396 0-2.477.333-3.238.998-.764.666-1.145 1.566-1.145 2.703 0 .845.275 1.526.827 2.045.552.521 1.242.926 2.07 1.218s2.004.617 3.531.975c2.013.454 3.644.925 4.895 1.412 1.249.486 2.32 1.259 3.214 2.313.893 1.055 1.339 2.492 1.339 4.31 0 2.24-.852 4.06-2.557 5.455-1.704 1.396-4.002 2.094-6.891 2.094-3.345 0-6.048-.779-8.109-2.338-2.063-1.559-3.304-3.733-3.726-6.525h5.406c.162 1.461.811 2.646 1.948 3.555 1.136.909 2.63 1.364 4.48 1.364 1.33 0 2.378-.349 3.141-1.048.763-.697 1.145-1.582 1.145-2.654 0-.94-.292-1.688-.876-2.24-.585-.552-1.315-.981-2.192-1.29-.876-.309-2.078-.625-3.604-.95-1.948-.454-3.531-.908-4.748-1.363a7.383 7.383 0 0 1-3.117-2.216c-.86-1.022-1.291-2.411-1.291-4.164 0-2.272.853-4.115 2.557-5.528 1.705-1.412 4.067-2.119 7.087-2.119 3.149-.001 5.674.802 7.574 2.41zM246.008 49.769v4.821h-3.409c-2.857 0-5.024-.689-6.501-2.07-1.479-1.379-2.217-3.677-2.217-6.891V32.48h-3.847v-4.724h3.847v-6.672h5.602v6.672h6.477v4.724h-6.477v13.247c0 1.526.283 2.581.852 3.165.568.585 1.566.877 2.995.877h2.678z"/></g><circle fill="#FCBB18" cx="30.044" cy="29.892" r="29.303"/><circle opacity=".3" fill="#FFF" cx="34.16" cy="33.813" r="24.01"/><g fill="#FFF"><path d="m59.575 20.276-1.309 4.884h-5.021l-7.659 28.585h-5.835L47.41 25.16h-6.604l-2.945 10.991c-.719 2.684-2.002 4.855-3.848 6.514-1.847 1.658-4.217 2.487-7.111 2.487-2.805 0-4.763-.769-5.872-2.308-1.111-1.537-1.299-3.678-.563-6.422.17-.634.31-1.101.421-1.402h5.653l-.376 1.402c-.291 1.085-.298 1.983-.02 2.691s.915 1.063 1.909 1.063c1.93 0 3.234-1.267 3.913-3.799l3.006-11.218H20.725l1.309-4.884h37.541z"/><path d="M46.938 15.867c-.604-.95-1.303-1.576-2.098-1.877-.793-.301-1.928-.453-3.407-.453h-2.171l1.26-4.703h2.081c2.404.03 4.25.287 5.538.769 1.288.483 2.409 1.531 3.364 3.143.955 1.614 1.954 4.185 2.999 7.712h-5.473c-.79-2.111-1.488-3.642-2.093-4.591zM96.846 25.161H91.87l-7.659 28.585h-5.88L82.96 36.47h-6.468l-.667 2.487c-.509 1.899-1.351 3.58-2.527 5.043a12.553 12.553 0 0 1-4.29 3.437c-1.686.83-3.507 1.244-5.467 1.244-3.106 0-5.265-.889-6.477-2.668-1.213-1.779-1.427-4.131-.643-7.056l2-7.464h5.835l-1.952 7.282c-.396 1.479-.363 2.646.101 3.506.463.859 1.298 1.289 2.504 1.289 1.267 0 2.361-.43 3.285-1.289.923-.859 1.584-2.027 1.98-3.506l1.952-7.282h12.166l1.696-6.332h-29.58l1.309-4.884h40.436l-1.307 4.884z"/><path d="M85.473 15.867c-.604-.95-1.303-1.576-2.098-1.877-.793-.301-1.928-.453-3.407-.453h-2.171l1.26-4.703h2.081c2.404.03 4.25.287 5.538.769 1.288.483 2.409 1.531 3.364 3.143.955 1.614 1.954 4.185 2.999 7.712h-5.473c-.79-2.111-1.487-3.642-2.093-4.591zM103.657 35.948c-1.743 1.161-2.906 2.827-3.487 4.998-.509 1.899-.299 3.453.629 4.659.928 1.206 2.402 1.809 4.422 1.809 2.051 0 3.871-.633 5.462-1.899 1.59-1.266 2.653-2.895 3.186-4.885h5.563c-.63 2.352-1.691 4.425-3.183 6.22a15.3 15.3 0 0 1-5.411 4.16c-2.117.98-4.397 1.47-6.839 1.47-2.473 0-4.544-.481-6.216-1.447-1.671-.965-2.815-2.321-3.432-4.069-.617-1.749-.622-3.755-.016-6.017.646-2.412 1.738-4.492 3.278-6.241 1.538-1.749 3.421-3.091 5.647-4.026 2.225-.934 4.665-1.401 7.318-1.401h.181l1.103-4.117H94.946l1.309-4.884h31.163l-1.309 4.884h-8.503l-2.424 9.046h-5.563c-2.232-.001-4.219.58-5.962 1.74z"/><path d="M129.229 25.161h-5.021l1.309-4.884h15.876l-1.309 4.884h-4.976l-7.659 28.585h-5.88l7.66-28.585z"/></g></svg>