<svg version="1.1" id="Layer_1" xmlns="http://www.w3.org/2000/svg" x="0" y="0" viewBox="0 0 264 60" style="enable-background:new 0 0 264 60" xml:space="preserve"><style>.st0{fill:#e91a46}.st1{fill:#fff}</style><circle transform="rotate(-82.981 164.697 29.608)" class="st0" cx="164.7" cy="29.61" r="27.18"/><path class="st1" d="M12.21 40.81c-.1-1.24-.17-2.45-.2-3.62-.04-1.17-.05-2.28-.05-3.32 0-1.73.04-3.29.11-4.66.07-1.38.14-2.57.21-3.57-1.23.07-2.42.16-3.58.28-1.16.11-2.23.27-3.22.45l.04-3.58c1.67-.3 3.39-.52 5.15-.65 1.76-.14 3.52-.2 5.28-.2 1.26 0 2.46.03 3.61.09s2.26.14 3.31.26L22.85 26c-1-.16-2.08-.27-3.25-.33s-2.36-.1-3.57-.1c-.07.97-.14 2.06-.19 3.25-.06 1.19-.09 2.47-.09 3.83 0 1.22.03 2.5.1 3.84.06 1.34.15 2.76.25 4.25l-3.89.07zM31.04 40.98c-1.14 0-2.14-.19-2.99-.56-.85-.37-1.55-.88-2.11-1.53s-.97-1.4-1.24-2.24-.41-1.73-.41-2.66c0-.94.17-1.82.5-2.63.34-.81.8-1.51 1.39-2.11.59-.6 1.29-1.07 2.09-1.4.8-.34 1.67-.5 2.62-.5.99 0 1.9.17 2.75.51.84.34 1.58.82 2.21 1.44.63.62 1.12 1.34 1.47 2.17.35.83.53 1.73.53 2.7 0 2.16-.59 3.84-1.78 5.03-1.2 1.18-2.87 1.78-5.03 1.78zm-.02-3.47c1.04 0 1.84-.29 2.39-.88s.83-1.43.83-2.53c0-.99-.3-1.78-.9-2.38-.6-.6-1.39-.9-2.36-.9-.59 0-1.12.15-1.61.46-.49.31-.88.72-1.17 1.22-.29.51-.44 1.07-.44 1.68 0 .54.11 1.07.33 1.59.22.51.58.93 1.06 1.25.49.32 1.11.49 1.87.49zM43.69 40.92c-.79 0-1.43-.17-1.94-.5-.51-.34-.91-.8-1.2-1.38-.29-.59-.51-1.26-.64-2.02-.14-.76-.22-1.57-.26-2.43-.04-.86-.05-1.73-.05-2.61 0-.76.02-1.59.06-2.5.04-.91.1-1.83.16-2.77s.14-1.82.21-2.65c.08-.83.15-1.55.23-2.17l3.88.04c-.11.73-.22 1.55-.32 2.48-.1.92-.18 1.85-.25 2.8-.06.94-.11 1.82-.15 2.62-.04.8-.05 1.44-.05 1.91 0 1.3.02 2.32.08 3.07.05.74.13 1.27.24 1.58.11.31.25.46.44.46.24 0 .51-.15.79-.46.29-.31.56-.65.84-1.04l1.82 3.62c-.44.49-.97.93-1.59 1.34-.62.4-1.39.61-2.3.61zM53.6 40.92c-.79 0-1.43-.17-1.94-.5-.51-.34-.91-.8-1.2-1.38-.29-.59-.51-1.26-.64-2.02-.14-.76-.22-1.57-.26-2.43-.04-.86-.05-1.73-.05-2.61 0-.76.02-1.59.06-2.5.04-.91.1-1.83.16-2.77s.14-1.82.21-2.65c.08-.83.15-1.55.23-2.17l3.88.04c-.11.73-.22 1.55-.32 2.48-.1.92-.18 1.85-.25 2.8-.06.94-.11 1.82-.15 2.62-.04.8-.05 1.44-.05 1.91 0 1.3.02 2.32.08 3.07.05.74.13 1.27.24 1.58.11.31.25.46.44.46.24 0 .51-.15.79-.46.29-.31.56-.65.84-1.04l1.82 3.62c-.44.49-.97.93-1.59 1.34-.62.4-1.39.61-2.3.61zM62.76 45.03l-3.22-1.71c.8-.89 1.58-1.8 2.34-2.73.76-.94 1.48-1.9 2.17-2.88-.67-.9-1.34-1.87-2.02-2.91-.67-1.04-1.29-2.05-1.87-3.06-.57-1-1.04-1.89-1.39-2.68l3.43-1.5c.26.69.59 1.43 1 2.23.41.8.86 1.62 1.35 2.45.49.83 1 1.62 1.53 2.38 1.54-2.5 2.82-4.97 3.82-7.4l3.56 1.42c-.64 1.23-1.37 2.55-2.18 3.96-.81 1.41-1.67 2.84-2.6 4.29-.92 1.45-1.88 2.87-2.88 4.27-1 1.37-2.02 2.67-3.04 3.87zM79.7 40.98c-1.19 0-2.19-.92-3.02-2.77-.29-.66-.54-1.38-.75-2.17-.21-.79-.4-1.59-.55-2.4-.15-.81-.27-1.6-.36-2.35-.09-.75-.16-1.42-.21-1.99-.05-.58-.09-1.02-.12-1.32l3.52-.81c.17 3.25.43 5.71.78 7.4.35 1.69.62 2.53.8 2.53.1 0 .23-.2.38-.6.15-.4.32-.93.5-1.6.19-.67.36-1.4.54-2.2.17-.8.32-1.61.45-2.42-.17-1.04-.29-1.87-.34-2.49l3.62-.13v.26c0 .59.04 1.27.13 2.06s.19 1.6.32 2.43c.13.84.27 1.61.42 2.33.15.71.3 1.29.44 1.74.14.44.26.67.36.67.09 0 .21-.19.36-.58s.33-.92.53-1.59c.19-.67.39-1.44.59-2.31.2-.87.39-1.78.58-2.75.19-.97.34-1.93.45-2.88l3.54.75c-.24 1.36-.53 2.71-.87 4.04-.34 1.34-.69 2.57-1.06 3.71-.37 1.14-.74 2.09-1.09 2.86-.8 1.7-1.79 2.55-2.98 2.55-.39 0-.83-.12-1.32-.35-.49-.24-.95-.73-1.36-1.47-.14-.27-.29-.6-.43-.99s-.28-.82-.41-1.29c-.17.53-.34 1-.51 1.42-.77 1.81-1.75 2.71-2.93 2.71zM100.8 40.98c-1.14 0-2.14-.19-2.99-.56-.85-.37-1.55-.88-2.11-1.53s-.97-1.4-1.24-2.24-.41-1.73-.41-2.66c0-.94.17-1.82.5-2.63.34-.81.8-1.51 1.39-2.11.59-.6 1.29-1.07 2.09-1.4.8-.34 1.67-.5 2.62-.5.99 0 1.9.17 2.75.51.84.34 1.58.82 2.21 1.44.63.62 1.12 1.34 1.47 2.17.35.83.53 1.73.53 2.7 0 2.16-.59 3.84-1.78 5.03s-2.87 1.78-5.03 1.78zm-.02-3.47c1.04 0 1.84-.29 2.39-.88s.83-1.43.83-2.53c0-.99-.3-1.78-.9-2.38-.6-.6-1.39-.9-2.36-.9-.59 0-1.12.15-1.61.46-.49.31-.88.72-1.17 1.22-.29.51-.44 1.07-.44 1.68 0 .54.11 1.07.33 1.59.22.51.58.93 1.06 1.25.49.32 1.11.49 1.87.49zM115.64 40.98c-1.14 0-2.14-.19-2.99-.56-.85-.37-1.55-.88-2.11-1.53s-.97-1.4-1.24-2.24-.41-1.73-.41-2.66c0-.94.17-1.82.5-2.63.34-.81.8-1.51 1.39-2.11.59-.6 1.29-1.07 2.09-1.4.8-.34 1.67-.5 2.62-.5.99 0 1.9.17 2.75.51.84.34 1.58.82 2.21 1.44.63.62 1.12 1.34 1.47 2.17.35.83.53 1.73.53 2.7 0 2.16-.59 3.84-1.78 5.03s-2.87 1.78-5.03 1.78zm-.02-3.47c1.04 0 1.84-.29 2.39-.88s.83-1.43.83-2.53c0-.99-.3-1.78-.9-2.38-.6-.6-1.39-.9-2.36-.9-.59 0-1.12.15-1.61.46-.49.31-.88.72-1.17 1.22-.29.51-.44 1.07-.44 1.68 0 .54.11 1.07.33 1.59s.58.93 1.06 1.25 1.11.49 1.87.49zM129.52 40.92c-.74 0-1.47-.13-2.18-.39-.71-.26-1.34-.65-1.91-1.19-.57-.54-1.01-1.21-1.34-2.02-.33-.81-.49-1.75-.49-2.84 0-1.23.19-2.29.57-3.19.38-.89.88-1.63 1.51-2.21.63-.58 1.33-1.01 2.1-1.3a6.52 6.52 0 0 1 2.32-.43c.46 0 .89.03 1.31.1.41.06.8.15 1.16.27.04-1.04.1-2.09.16-3.15s.14-2.1.23-3.13l3.6.24c-.11 1.19-.21 2.46-.3 3.83s-.15 2.76-.18 4.17a145.93 145.93 0 0 0 0 7.73c.04 1.14.08 2.17.14 3.1l-3.71.28c-.01-.27-.02-.54-.02-.79-.42.27-.87.49-1.36.66-.51.17-1.04.26-1.61.26zm-2.47-6.63c0 .74.14 1.33.43 1.75s.64.72 1.05.89.82.26 1.2.26c.46 0 .92-.1 1.37-.3.46-.2.89-.55 1.29-1.05v-.49c0-1.16.01-2.34.04-3.56-.67-.59-1.4-.88-2.19-.88-.33 0-.68.05-1.05.15-.37.1-.72.28-1.04.53-.32.25-.59.59-.79 1.03-.21.42-.31.98-.31 1.67z"/><circle transform="rotate(-4.052 162.326 30.593)" cx="162.35" cy="30.63" style="fill:#300b41" r="24.83"/><path class="st0" d="M110.97 50.94c-.28 0-.5-.06-.68-.19a1.04 1.04 0 0 1-.4-.48c-.09-.2-.13-.4-.13-.61 0-.4.13-.7.38-.92s.56-.32.91-.32c.36 0 .65.11.86.33.21.22.32.51.32.87 0 .46-.12.8-.38 1-.25.22-.54.32-.88.32zM116.29 50.94c-.61 0-1.17-.13-1.68-.38s-.93-.62-1.24-1.09c-.31-.47-.47-1.04-.47-1.7 0-.74.14-1.39.43-1.95s.7-.99 1.22-1.3c.52-.31 1.13-.46 1.83-.46.67 0 1.23.14 1.7.41.46.27.88.7 1.24 1.29l-1.51 1.04c-.2-.33-.41-.57-.62-.74s-.5-.26-.86-.26c-.49 0-.89.17-1.2.52-.3.34-.46.8-.46 1.38 0 .33.08.61.25.82s.36.37.6.47.46.15.67.15c.22 0 .43-.03.63-.08s.39-.18.58-.36c.18-.19.34-.47.49-.86l1.63.87c-.22.4-.46.77-.73 1.11-.27.34-.6.62-.99.83-.4.19-.9.29-1.51.29zM123.46 50.95c-.58 0-1.09-.09-1.52-.28-.43-.19-.79-.45-1.07-.78s-.49-.71-.63-1.14-.21-.88-.21-1.35c0-.48.08-.92.26-1.33.17-.41.41-.77.71-1.07.3-.3.65-.54 1.06-.71.41-.17.85-.26 1.33-.26.5 0 .96.09 1.39.26s.8.42 1.12.73.57.68.75 1.1c.18.42.27.88.27 1.37 0 1.09-.3 1.94-.9 2.55-.62.61-1.46.91-2.56.91zm-.01-1.76c.53 0 .93-.15 1.21-.45.28-.3.42-.72.42-1.28 0-.5-.15-.9-.46-1.21-.3-.3-.7-.46-1.2-.46-.3 0-.57.08-.82.23-.25.16-.44.36-.59.62-.15.26-.22.54-.22.85 0 .28.06.54.17.8s.29.47.54.64.57.26.95.26zM127.76 50.91c-.01-.11-.01-.29-.02-.54s-.01-.55-.02-.9-.01-.72-.01-1.12v-2.49c0-.4.01-.76.01-1.05 0-.3.01-.51.01-.64l1.84-.03c-.01.2-.03.45-.03.74.19-.25.41-.45.65-.6.25-.15.53-.22.85-.22.38 0 .7.11.95.34s.46.52.61.88c.52-.81 1.16-1.22 1.92-1.22.43 0 .78.09 1.06.28.28.18.5.43.66.74.16.31.28.66.35 1.05.08.39.12.79.15 1.21.02.41.03.81.03 1.2 0 .46-.01.87-.02 1.25s-.02.74-.01 1.08h-1.88v-.66c0-.27 0-.53.01-.8 0-.27.01-.51.01-.71v-.35c0-.43-.01-.84-.03-1.23-.02-.38-.08-.7-.16-.93s-.23-.36-.42-.36c-.19 0-.36.09-.5.27-.15.18-.27.42-.39.71-.11.29-.21.6-.29.92.01.28.03.56.03.84.01.28.01.55.01.81v.78c0 .22-.01.46-.01.71h-1.83c0-.59 0-1.11-.01-1.55-.01-.45-.02-.88-.04-1.3-.04-.75-.11-1.31-.23-1.66-.12-.35-.28-.53-.49-.53-.23 0-.43.14-.59.42-.16.28-.29.62-.39 1.02.01.58.02 1.18.04 1.82s.05 1.24.09 1.83l-1.91-.01z"/><path class="st1" d="M153.24 35.47c.16.26.24.61.24 1.05 0 .85-.2 1.51-.61 1.98-.92 1.13-1.91 2.05-2.99 2.78-1.08.72-2.29 1.09-3.66 1.09-1.87 0-3.26-.85-4.17-2.56-.91-1.7-1.36-3.91-1.36-6.61 0-2.6.33-5.56 1.01-8.88.67-3.32 1.66-6.17 2.97-8.56 1.31-2.38 2.87-3.58 4.68-3.58 1.02 0 1.83.47 2.41 1.42.58.95.88 2.3.88 4.07 0 2.53-.7 5.47-2.11 8.81-1.41 3.34-3.31 6.65-5.72 9.93.15.87.39 1.5.73 1.87.34.37.79.56 1.34.56.87 0 1.64-.25 2.3-.75.66-.5 1.5-1.36 2.52-2.57.26-.3.54-.45.86-.45.3.01.52.14.68.4zM146.99 18c-.62 1.77-1.16 3.96-1.63 6.58s-.72 5.13-.77 7.54c1.51-2.49 2.71-4.99 3.61-7.49.89-2.5 1.34-4.78 1.34-6.85 0-1.62-.3-2.43-.89-2.43-.48 0-1.04.88-1.66 2.65z"/><path class="st1" d="M151.8 40.89c-.63-.98-.94-2.28-.94-3.9 0-.96.12-2.19.37-3.69.24-1.5.56-2.9.94-4.2.19-.68.45-1.15.77-1.41s.83-.38 1.53-.38c1.09 0 1.63.36 1.63 1.09 0 .53-.2 1.77-.61 3.7-.51 2.34-.77 3.93-.77 4.76 0 .64.08 1.13.25 1.47.17.34.46.51.86.51.38 0 .86-.27 1.44-.8.57-.53 1.34-1.37 2.3-2.52.26-.3.54-.45.86-.45.28 0 .5.13.65.38.16.26.24.61.24 1.05 0 .85-.2 1.51-.61 1.98-2.11 2.58-4.08 3.86-5.91 3.86-1.37.02-2.37-.47-3-1.45zm1.26-16.3c-.45-.42-.67-1-.67-1.74s.29-1.37.88-1.87c.58-.5 1.31-.75 2.19-.75.79 0 1.43.19 1.92.57.49.38.73.93.73 1.63 0 .85-.28 1.53-.83 2.03-.55.5-1.29.75-2.2.75-.9.01-1.57-.2-2.02-.62z"/><path class="st1" d="M172.06 34.6c0 1.68-1.32 2.52-3.96 2.52-.51 0-1.25-.1-2.2-.29.28 1.32.51 2.78.69 4.39.18 1.61.27 2.93.27 3.98 0 2.3-.37 4.06-1.12 5.27-.75 1.21-1.72 1.82-2.94 1.82-1.53 0-2.62-1.09-3.27-3.26-.65-2.17-.97-5.45-.97-9.84 0-4.09.44-8.23 1.33-12.44.88-4.2 2.1-7.69 3.64-10.44 1.54-2.76 3.24-4.14 5.09-4.14 1 0 1.78.45 2.35 1.34.56.89.85 2.1.85 3.61 0 5-2.99 10.45-8.97 16.35-.21 2.09-.32 3.92-.32 5.49 0 2.19.07 4.44.22 6.75.15 2.31.39 3.46.73 3.46.64 0 .96-1.11.96-3.32 0-1.66-.11-3.27-.33-4.82s-.53-3.19-.91-4.92c-.02-.28.07-.63.27-1.05.2-.43.45-.8.75-1.12s.56-.48.8-.48c.43 0 .94.02 1.53.06.19.02.42.03.67.03.85 0 1.8-.07 2.84-.22.17-.02.35-.04.54-.06.19-.02.38-.03.58-.03.58.02.88.47.88 1.36zm-5.54-17.3c-.56 1.3-1.12 3.02-1.68 5.16s-1.03 4.4-1.44 6.79c1.7-1.94 3.01-3.95 3.93-6.05.92-2.1 1.38-4.06 1.41-5.89 0-1.3-.27-1.95-.8-1.95-.38-.01-.85.64-1.42 1.94z"/><path class="st1" d="M181.72 36.42c.16.26.24.61.24 1.05 0 .77-.18 1.43-.54 1.98-.6.92-1.38 1.63-2.35 2.14-.97.51-2.12.77-3.46.77-2.04 0-3.63-.61-4.76-1.84-1.13-1.22-1.69-2.88-1.69-4.97 0-1.47.31-2.84.93-4.1.62-1.27 1.47-2.27 2.57-3.02 1.1-.75 2.34-1.12 3.72-1.12 1.23 0 2.22.37 2.97 1.1s1.12 1.73 1.12 2.99c0 1.47-.53 2.73-1.58 3.78s-2.85 1.89-5.38 2.51c.51.98 1.37 1.47 2.59 1.47.87 0 1.59-.2 2.16-.61.56-.4 1.22-1.09 1.96-2.04.26-.32.54-.48.86-.48.26.01.48.14.64.39zm-7.89-4.59c-.54.92-.81 2.02-.81 3.32v.06c1.26-.3 2.25-.75 2.97-1.34.72-.6 1.09-1.29 1.09-2.08 0-.4-.11-.73-.34-.97-.22-.24-.53-.37-.91-.37-.79 0-1.45.46-2 1.38z"/><path class="st0" d="M28.19 15.98c.09.15.14.36.14.63 0 .51-.12.9-.36 1.18-.54.67-1.14 1.22-1.78 1.65s-1.39.65-2.22.65c-2.58 0-3.87-1.82-3.87-5.45 0-.56.02-1.12.06-1.69h-.74c-.38 0-.64-.07-.77-.21s-.2-.36-.2-.66c0-.71.28-1.06.85-1.06h1.08c.22-1.39.54-2.66.99-3.82.44-1.15.98-2.07 1.6-2.75.63-.68 1.3-1.03 2.02-1.03.53 0 .95.23 1.25.7s.46 1.06.46 1.77c0 1.96-.82 3.67-2.47 5.13h2.13c.2 0 .35.04.44.13s.13.25.13.49c0 .87-.71 1.31-2.15 1.31h-2.32c-.03.63-.04 1.13-.04 1.48 0 1.32.15 2.24.47 2.77.31.53.8.8 1.47.8.54 0 1.02-.16 1.44-.49.42-.33.91-.82 1.48-1.48.15-.18.32-.27.51-.27.17-.01.3.06.4.22zM23.84 5.94c-.23.47-.46 1.13-.66 1.97-.21.84-.38 1.77-.52 2.8.75-.65 1.31-1.37 1.68-2.17.37-.8.56-1.53.56-2.19 0-.75-.14-1.12-.42-1.12-.19 0-.41.24-.64.71z"/><path class="st0" d="M37.72 15.98c.1.15.14.36.14.63 0 .51-.12.9-.36 1.18-.58.67-1.18 1.22-1.79 1.65s-1.31.65-2.1.65c-.65 0-1.13-.19-1.46-.56-.33-.37-.49-.91-.49-1.62 0-.35.09-.99.27-1.9.16-.8.25-1.35.25-1.65 0-.2-.07-.3-.21-.3-.16 0-.4.21-.7.64-.3.42-.61.98-.91 1.68-.3.7-.55 1.43-.74 2.2-.24 1.01-.84 1.52-1.78 1.52-.38 0-.63-.14-.75-.41-.12-.27-.18-.76-.18-1.47 0-.4.01-.73.02-.97l.02-1.52c0-1.95.2-3.98.6-6.09.4-2.11.99-3.89 1.77-5.33s1.71-2.15 2.8-2.15c.58 0 1.05.25 1.41.75.36.5.54 1.15.54 1.95 0 1.28-.37 2.6-1.12 3.98-.75 1.37-1.96 2.98-3.65 4.81-.04.66-.06 1.34-.06 2.03.42-1.08.88-1.95 1.4-2.63.51-.68 1.02-1.16 1.52-1.45.5-.29.96-.44 1.38-.44.82 0 1.23.41 1.23 1.23 0 .49-.14 1.39-.42 2.68-.24 1.1-.36 1.83-.36 2.18 0 .51.18.76.55.76.25 0 .55-.15.9-.47.35-.31.81-.81 1.4-1.51.15-.18.32-.27.51-.27.14-.01.27.06.37.22zM30.93 4.99c-.28.65-.55 1.53-.81 2.64s-.47 2.31-.64 3.62c.78-.92 1.43-1.93 1.95-3.02.51-1.09.77-2.08.77-2.96 0-.4-.04-.71-.13-.93-.09-.21-.22-.32-.38-.32-.23 0-.48.32-.76.97z"/><path class="st0" d="M43.51 16.55c.09.15.14.36.14.63 0 .46-.11.85-.32 1.18-.35.54-.82.97-1.4 1.27-.58.3-1.26.46-2.06.46-1.21 0-2.16-.36-2.83-1.09-.67-.73-1.01-1.71-1.01-2.95 0-.87.18-1.69.55-2.44s.88-1.35 1.53-1.79 1.39-.66 2.21-.66c.73 0 1.32.22 1.77.65s.66 1.03.66 1.77c0 .87-.31 1.62-.94 2.25-.63.63-1.69 1.12-3.2 1.49.3.58.82.87 1.54.87.52 0 .95-.12 1.28-.36.33-.24.72-.65 1.17-1.21.15-.19.32-.28.51-.28.17-.02.3.05.4.21zm-4.69-2.74c-.32.54-.48 1.2-.48 1.97v.04c.75-.18 1.33-.44 1.77-.8.43-.35.65-.77.65-1.23a.85.85 0 0 0-.2-.58A.778.778 0 0 0 40 13c-.47 0-.86.27-1.18.81z"/><path d="M94.11 23.91s9.19-2.08 12.77 3.3c-.01 0-6.39-3.85-12.77-3.3zM121.47 23.91s-9.19-2.08-12.77 3.3c0 0 6.38-3.85 12.77-3.3z"/><path class="st0" d="M104.04 34.85c0 1.3-1.05 2.36-2.36 2.36-1.3 0-2.36-1.06-2.36-2.36 0-1.3 1.06-2.36 2.36-2.36 1.31 0 2.36 1.05 2.36 2.36zM117.19 34.85c0 1.3-1.06 2.36-2.36 2.36-1.3 0-2.36-1.06-2.36-2.36 0-1.3 1.06-2.36 2.36-2.36 1.31 0 2.36 1.05 2.36 2.36z"/></svg>